<?xml version="1.0" encoding="UTF-8"?>
<svg width="16px" height="16px" viewBox="0 0 16 16" version="1.1" xmlns="http://www.w3.org/2000/svg" xmlns:xlink="http://www.w3.org/1999/xlink">
    <title>egg-fried</title>
    <g id="页面-1" stroke="none" stroke-width="1" fill="none" fill-rule="evenodd">
        <g id="egg-fried" transform="translate(-0.002261, -0.000111)" fill-rule="nonzero">
            <path d="M12.9992608,5.13611071 C12.9846159,5.57272847 13.2550903,5.96831764 13.6672608,6.11311071 C14.3603534,6.35786817 14.8634604,6.96291886 14.9776595,7.68903321 C15.0918586,8.41514755 14.7987637,9.14542034 14.2142608,9.59111071 C13.8741219,9.85090668 13.73703,10.298365 13.8732608,10.7041107 C14.2118502,11.7091194 13.8795048,12.8183942 13.0440855,13.4716628 C12.2086663,14.1249314 11.0519861,14.1800225 10.1582608,13.6091107 C9.75536285,13.3515089 9.22647078,13.4152106 8.89626083,13.7611107 C7.59574407,15.1273839 5.5174775,15.3994223 3.90911978,14.4139114 C2.30076207,13.4284004 1.5994726,11.4532068 2.22626083,9.67411071 C2.34734084,9.32927464 2.27065625,8.9458517 2.02626083,8.67411071 C0.881624378,7.4017181 0.673322539,5.54207298 1.50807886,4.0479654 C2.34283518,2.55385782 4.0356709,1.75637624 5.71926083,2.06411071 C6.00228138,2.11561479 6.29377403,2.04274162 6.51926083,1.86411071 C7.74133037,0.896945954 9.41387183,0.72763586 10.804974,1.43027124 C12.1960761,2.13290663 13.052418,3.57953697 12.9992608,5.13711071 L12.9992608,5.13611071 Z" id="路径" fill="#FFFFFF"></path>
            <path d="M8.00226083,11.0001107 C9.65911508,11.0001107 11.0022608,9.65696496 11.0022608,8.00011071 C11.0022608,6.34325646 9.65911508,5.00011071 8.00226083,5.00011071 C6.34540658,5.00011071 5.00226083,6.34325646 5.00226083,8.00011071 C5.00226083,9.65696496 6.34540658,11.0001107 8.00226083,11.0001107 Z" id="路径" fill="#E6B80E"></path>
            <path d="M13.9992608,5.17011071 C14.0655286,3.22299562 12.9947715,1.41470131 11.2556157,0.536643386 C9.51645991,-0.341414533 7.42565541,-0.129316593 5.89826083,1.08011071 C3.7940207,0.695857985 1.67842268,1.69271611 0.635127278,3.56007023 C-0.408168123,5.42742434 -0.14804277,7.75160504 1.28226083,9.34211071 C0.500107329,11.5653612 1.3766936,14.0329364 3.38613973,15.2644936 C5.39558587,16.4960507 7.9922143,16.1571528 9.61826083,14.4511107 C10.8691353,15.2496578 12.4876307,15.1725289 13.6569002,14.2586508 C14.8261696,13.3447726 15.2919888,11.7928419 14.8192608,10.3861107 C15.6957286,9.71742458 16.1350033,8.62201861 15.9633882,7.53303504 C15.7917731,6.44405147 15.0369008,5.53683354 13.9972608,5.17011071 L13.9992608,5.17011071 Z M12.9992608,5.13611071 C12.9846159,5.57272847 13.2550903,5.96831764 13.6672608,6.11311071 C14.3603534,6.35786817 14.8634604,6.96291886 14.9776595,7.68903321 C15.0918586,8.41514755 14.7987637,9.14542034 14.2142608,9.59111071 C13.8741219,9.85090668 13.73703,10.298365 13.8732608,10.7041107 C14.2118502,11.7091194 13.8795048,12.8183942 13.0440855,13.4716628 C12.2086663,14.1249314 11.0519861,14.1800225 10.1582608,13.6091107 C9.75536285,13.3515089 9.22647078,13.4152106 8.89626083,13.7611107 C7.59574407,15.1273839 5.5174775,15.3994223 3.90911978,14.4139114 C2.30076207,13.4284004 1.5994726,11.4532068 2.22626083,9.67411071 C2.34734084,9.32927464 2.27065625,8.9458517 2.02626083,8.67411071 C0.881624378,7.4017181 0.673322539,5.54207298 1.50807886,4.0479654 C2.34283518,2.55385782 4.0356709,1.75637624 5.71926083,2.06411071 C6.00228138,2.11561479 6.29377403,2.04274162 6.51926083,1.86411071 C7.74133037,0.896945954 9.41387183,0.72763586 10.804974,1.43027124 C12.1960761,2.13290663 13.052418,3.57953697 12.9992608,5.13711071 L12.9992608,5.13611071 Z" id="形状" fill="#000000"></path>
        </g>
    </g>
</svg>