<svg xmlns="http://www.w3.org/2000/svg" xmlns:xlink="http://www.w3.org/1999/xlink" viewBox="0 0 375 300" class="design-iconfont"><defs><filter x="-24.2%" y="-37.4%" width="148.4%" height="174.8%" id="c"><feGaussianBlur stdDeviation="40" in="SourceGraphic"/></filter><filter x="-53.6%" y="-53.6%" width="207.1%" height="207.1%" id="d"><feGaussianBlur stdDeviation="40" in="SourceGraphic"/></filter><filter x="-43.9%" y="-43.9%" width="187.8%" height="187.8%" id="e"><feGaussianBlur stdDeviation="43" in="SourceGraphic"/></filter><path id="a" d="M0 0h375v668H0z"/></defs><g fill="none" fill-rule="evenodd"><mask id="b" fill="#fff"><use xlink:href="#a"/></mask><use fill="#F5F5F5" opacity=".6" xlink:href="#a"/><g mask="url(#b)"><path fill="#2D7CF3" opacity=".756" filter="url(#c)" d="M93.512 68h495.37v321H93.513z" transform="translate(-153.5 -107)"/><path fill="#E3F8FF" opacity=".8" filter="url(#d)" d="M482 313a112 112 0 1 0 0 224 112 112 0 1 0 0-224Z" transform="translate(-153.5 -107)"/><path fill="#E3F8FF" opacity=".4" filter="url(#e)" d="M147 0a147 147 0 1 0 0 294 147 147 0 1 0 0-294Z" transform="translate(-153.5 -107)"/></g></g></svg>